<?xml version="1.0" encoding="iso-8859-1"?>
<!-- Generator: Adobe Illustrator 19.0.0, SVG Export Plug-In . SVG Version: 6.00 Build 0)  -->
<svg version="1.1" id="Capa_1" xmlns="http://www.w3.org/2000/svg" xmlns:xlink="http://www.w3.org/1999/xlink" x="0px" y="0px"
	 viewBox="0 0 512.001 512.001" style="enable-background:new 0 0 512.001 512.001;" xml:space="preserve">
<g>
	<path style="fill:#F1DFC4;" d="M373.737,195.929c-3.489-13.267-5.53-29.327-5.53-46.635c0-45.575,14.158-82.52,31.621-82.52
		H264.824h-29.999H131.441c-10.832,0-20.392,14.215-26.09,35.887c-3.49,13.265-5.53,29.327-5.53,46.633
		c0,45.575,14.158,82.522,31.62,82.522h103.384h29.999h135.004C388.996,231.816,379.435,217.601,373.737,195.929z"/>
	<g>
		<rect x="234.82" y="24.039" style="fill:#947C6B;" width="29.999" height="42.739"/>
		<rect x="234.82" y="231.819" style="fill:#947C6B;" width="29.999" height="65.807"/>
	</g>
	<path style="fill:#C7A87E;" d="M234.825,297.623H122.964c-38.558,0-71.719-32.593-76.351-77.206c0,2.131-0.365,4.175-1.034,6.077
		c-24.161,149.37,94.202,170.61,150.669,172.954c4.578,0.191,8.749,0.256,12.402,0.256h71.731h72.087h10.414h52.375
		c68.245-43.16,55.403-142.313,51.159-166.276c-0.586-1.666-0.939-3.442-1.029-5.289c-14.763,61.273-80.979,69.484-80.979,69.484
		H264.824H234.825z"/>
	<g>
		<path style="fill:#947C6B;" d="M28.305,238.723c7.978,0,14.768-5.104,17.274-12.229c0.669-1.902,1.034-3.946,1.034-6.077
			c0-10.109-8.197-18.306-18.309-18.306c-10.107,0-18.305,8.196-18.305,18.306C10,230.527,18.197,238.723,28.305,238.723z"/>
		<path style="fill:#947C6B;" d="M483.693,209.052c-10.111,0-18.308,8.195-18.308,18.307c0,0.26,0.006,0.52,0.002,0.779l0.018,0.087
			c0.085,1.816,0.436,3.563,1.011,5.202c2.503,7.129,9.294,12.238,17.276,12.238c10.11,0,18.305-8.197,18.305-18.307
			C501.998,217.248,493.804,209.052,483.693,209.052z"/>
		<path style="fill:#947C6B;" d="M402.123,468.877l-9.429-35.187c-1.677-6.262-8.173-10.012-14.435-8.335l-7.935,2.126l-7.935,2.126
			c-6.262,1.679-10.012,8.175-8.334,14.434l9.429,35.19c1.679,6.26,8.173,10.012,14.435,8.333l15.869-4.252
			C400.051,481.633,403.801,475.139,402.123,468.877z"/>
		<path style="fill:#947C6B;" d="M319.621,468.877l-9.428-35.187c-1.677-6.262-8.173-10.012-14.435-8.335l-7.934,2.126l-7.935,2.126
			c-6.262,1.679-10.012,8.175-8.333,14.434l9.429,35.19c1.678,6.26,8.172,10.012,14.435,8.333l15.869-4.252
			C317.55,481.633,321.3,475.139,319.621,468.877z"/>
		<path style="fill:#947C6B;" d="M235.56,468.877l-9.429-35.187c-1.678-6.262-8.172-10.012-14.434-8.335l-7.936,2.126l-7.934,2.126
			c-6.263,1.679-10.013,8.175-8.336,14.434l9.43,35.19c1.679,6.26,8.173,10.012,14.434,8.333l15.871-4.252
			C233.488,481.633,237.238,475.139,235.56,468.877z"/>
	</g>
</g>
<g>
	<path style="fill:#000001;" d="M483.693,199.052c-15.413,0-27.98,12.387-28.291,27.728c-5.532,21.806-19.02,38.607-40.138,49.931
		c-14.903,7.99-28.773,10.472-31.575,10.912H274.824v-45.807h125.004c0.006,0,0.013,0,0.02,0c5.523,0,10-4.477,10-10
		s-4.477-10-10-10h-0.01c-0.004,0-0.008,0-0.01,0c-3.988,0-11.275-9.397-16.28-27.811c-0.083-0.429-0.198-0.846-0.335-1.254
		c-2.935-11.275-5.006-25.779-5.006-43.457c0-47.846,15.154-72.52,21.621-72.52c5.522,0,10-4.477,10-10c0-5.522-4.478-10-10-10
		H274.824V24.036c0-5.522-4.477-10-10-10h-29.999c-5.522,0-10,4.477-10,10v32.739h-93.384c-16.998,0-28.953,18.016-35.563,42.699
		c-0.146,0.434-0.264,0.879-0.35,1.337c-3.783,14.689-5.708,31.623-5.708,48.483c0,45.978,14.296,92.522,41.62,92.522h93.384v45.807
		h-101.86c-33.729,0-62.212-29.183-66.368-67.929c-0.385-15.274-12.922-27.583-28.287-27.583C12.699,192.111,0,204.809,0,220.416
		c0,15.609,12.699,28.309,28.309,28.309c1.584,0,3.135-0.137,4.648-0.389c-3.16,44.473,6.828,80.611,29.834,107.637
		c33.406,39.243,87.154,50.462,125.673,53.053l3.071,11.461c-10.563,3.774-16.654,15.121-13.702,26.144l9.431,35.19
		c2.549,9.505,11.209,16.144,21.061,16.144c1.894,0,3.785-0.249,5.619-0.741l15.872-4.252c11.603-3.11,18.513-15.08,15.403-26.683
		l-9.428-35.187c-2.549-9.507-11.209-16.146-21.063-16.146c-1.299,0-2.595,0.126-3.874,0.357l-1.503-5.609h63.356l2.892,10.791
		c-4.852,1.73-8.902,5.086-11.516,9.612c-2.914,5.048-3.691,10.916-2.188,16.522l9.428,35.19
		c2.549,9.506,11.21,16.145,21.063,16.145c1.895,0,3.785-0.249,5.62-0.741l15.87-4.252c11.604-3.11,18.514-15.081,15.403-26.682
		l-9.427-35.186c-2.547-9.509-11.208-16.148-21.064-16.148c-1.298,0-2.594,0.126-3.873,0.357l-1.503-5.609h61.796l2.892,10.791
		c-4.852,1.73-8.902,5.086-11.515,9.612c-2.914,5.048-3.691,10.916-2.188,16.522l9.428,35.19
		c2.549,9.506,11.209,16.145,21.062,16.145c1.893,0,3.785-0.249,5.62-0.741l15.871-4.252c11.602-3.11,18.512-15.08,15.402-26.683
		l-9.428-35.185c-2.545-9.508-11.206-16.148-21.063-16.148c-1.299,0-2.594,0.126-3.873,0.357l-1.504-5.609h39.344
		c1.892,0,3.745-0.536,5.345-1.548c31.59-19.978,50.874-52.735,57.315-97.36c2.973-20.591,2.598-40.3,1.348-55.477
		c1.443,0.229,2.922,0.35,4.428,0.35c15.609,0,28.309-12.699,28.309-28.309C512.002,211.75,499.303,199.052,483.693,199.052z
		 M298.789,434.956c0.691,0,1.512,0.453,1.745,1.322l9.428,35.188c0.251,0.935-0.327,1.937-1.262,2.187l-15.87,4.252
		c-0.149,0.04-0.295,0.06-0.443,0.06c-0.69,0-1.511-0.454-1.744-1.321l-9.428-35.19c-0.154-0.574,0.019-1.049,0.19-1.347
		c0.172-0.298,0.497-0.686,1.071-0.84l15.868-4.251C298.495,434.975,298.641,434.956,298.789,434.956z M381.291,434.956
		c0.69,0,1.512,0.453,1.744,1.323l9.428,35.187c0.251,0.935-0.328,1.938-1.262,2.188l-15.869,4.252
		c-0.15,0.04-0.296,0.06-0.444,0.06c-0.69,0-1.511-0.454-1.743-1.321l-9.429-35.19c-0.153-0.574,0.019-1.049,0.19-1.347
		c0.172-0.298,0.498-0.686,1.072-0.84l15.867-4.251C380.996,434.975,381.143,434.956,381.291,434.956z M244.825,34.036h9.999v22.739
		h-9.999V34.036z M109.821,149.294c0-14.3,1.359-26.513,3.431-36.633h43.135c5.523,0,10-4.477,10-10c0-5.522-4.477-10-10-10h-37.214
		c4.369-10.536,9.259-15.887,12.269-15.887h103.384h29.999H373c-9.772,17.841-14.792,45.28-14.792,72.52
		c0,12.488,1.068,25.007,3.152,36.635h-38.658c-5.523,0-10,4.478-10,10c0,5.523,4.477,10,10,10h43.593
		c1.907,5.836,4.138,11.199,6.705,15.887H264.824h-29.999H131.441C124.976,221.816,109.821,197.142,109.821,149.294z
		 M244.825,241.816h9.999v45.807h-9.999V241.816z M20,220.416c0-4.58,3.727-8.306,8.309-8.306c4.574,0,8.297,3.718,8.306,8.291
		c0,0.009-0.001,0.017-0.001,0.025c0,0.054-0.006,0.108-0.008,0.162c-0.004,0.203-0.012,0.404-0.03,0.604
		c-0.009,0.094-0.023,0.186-0.035,0.28c-0.022,0.169-0.046,0.337-0.077,0.503c-0.018,0.091-0.037,0.181-0.058,0.271
		c-0.038,0.17-0.081,0.338-0.13,0.504c-0.023,0.079-0.047,0.157-0.072,0.236c-1.085,3.326-4.212,5.738-7.894,5.738
		C23.727,228.725,20,224.999,20,220.416z M214.729,434.956c0.689,0,1.511,0.454,1.744,1.323l9.428,35.187
		c0.25,0.935-0.328,1.938-1.262,2.188l-15.873,4.252c-0.149,0.04-0.294,0.06-0.441,0.06c-0.69,0-1.51-0.454-1.743-1.322
		l-9.429-35.188c-0.247-0.919,0.344-1.941,1.264-2.189l7.934-2.126c0,0,0,0,0.001,0s0.001,0,0.001,0l7.932-2.125
		C214.434,434.975,214.579,434.956,214.729,434.956z M412.281,389.703h-41.725l-9.384-35.025c-1.43-5.335-6.912-8.502-12.248-7.071
		c-5.334,1.43-8.5,6.913-7.07,12.247l7.997,29.85h-61.796l-9.385-35.025c-1.43-5.335-6.913-8.502-12.247-7.071
		c-5.335,1.43-8.501,6.913-7.071,12.247l7.998,29.85h-58.7c-1.497,0-3.067-0.017-4.67-0.043l-9.375-34.982
		c-1.43-5.334-6.912-8.502-12.247-7.071c-5.335,1.43-8.501,6.913-7.071,12.248l7.688,28.685
		c-34.07-3.132-77.919-13.771-104.953-45.53c-16.508-19.393-25.071-44.841-25.609-75.945c15.859,24.712,41.708,40.559,70.552,40.559
		h111.861h29.999h119.584c0.411,0,0.822-0.025,1.23-0.076c0.75-0.093,18.6-2.398,38.391-12.845
		c14.798-7.811,26.819-18.115,35.742-30.51C461.676,300.905,456.818,359.635,412.281,389.703z M483.693,235.667
		c-3.67,0-6.787-2.397-7.883-5.707c-0.102-0.311-0.191-0.626-0.257-0.948c-0.018-0.086-0.025-0.176-0.04-0.264
		c-0.045-0.266-0.077-0.532-0.096-0.802c-0.014-0.195-0.03-0.39-0.03-0.588c0-4.58,3.726-8.307,8.306-8.307
		c4.582,0,8.309,3.727,8.309,8.307C492.002,231.94,488.275,235.667,483.693,235.667z"/>
	<path style="fill:#000001;" d="M185.354,92.662h-0.238c-5.522,0-10,4.478-10,10c0,5.523,4.478,10,10,10h0.238
		c5.523,0,10-4.477,10-10S190.877,92.662,185.354,92.662z"/>
	<path style="fill:#000001;" d="M293.736,205.929h0.236c5.522,0,10-4.477,10-10c0-5.522-4.478-10-10-10h-0.236
		c-5.523,0-10,4.478-10,10C283.736,201.453,288.213,205.929,293.736,205.929z"/>
</g>
<g>
</g>
<g>
</g>
<g>
</g>
<g>
</g>
<g>
</g>
<g>
</g>
<g>
</g>
<g>
</g>
<g>
</g>
<g>
</g>
<g>
</g>
<g>
</g>
<g>
</g>
<g>
</g>
<g>
</g>
</svg>
